<?xml version="1.0" standalone="no"?>
<!DOCTYPE svg PUBLIC "-//W3C//DTD SVG 20010904//EN"
 "http://www.w3.org/TR/2001/REC-SVG-20010904/DTD/svg10.dtd">
<svg version="1.0" xmlns="http://www.w3.org/2000/svg"
 width="1083.000000pt" height="1300.000000pt" viewBox="0 0 1083.000000 1300.000000"
 preserveAspectRatio="xMidYMid meet">

<g transform="translate(0.000000,1300.000000) scale(0.100000,-0.100000)"
fill="#000000" stroke="none">
<path d="M5415 11436 c-346 -68 -625 -208 -845 -426 -124 -123 -219 -250 -280
-375 -61 -125 -80 -199 -80 -311 0 -115 15 -167 89 -317 72 -145 147 -368 188
-552 l28 -130 6 250 c7 275 17 349 69 484 113 293 393 488 795 555 127 21 367
39 468 35 75 -4 84 -2 74 11 -9 11 -7 11 8 -1 13 -11 46 -18 98 -21 42 -3 80
-8 84 -11 3 -4 9 -47 14 -97 11 -118 36 -253 60 -315 10 -28 47 -105 82 -172
l63 -123 24 23 24 22 -23 -26 -23 -27 32 -98 c37 -114 46 -224 33 -377 -7 -81
-7 -95 4 -81 7 10 13 21 13 25 0 4 29 82 65 173 84 214 126 342 128 387 1 21
5 35 8 33 8 -4 38 133 46 210 6 59 6 61 -13 46 -18 -14 -18 -14 -1 6 13 15 17
38 17 92 0 207 -95 401 -260 529 -53 41 -58 47 -49 70 13 34 11 73 -3 73 -6 0
-25 -11 -42 -24 l-32 -24 -1 37 c-2 47 -20 94 -33 86 -5 -3 -10 -17 -10 -31 0
-33 -13 -30 -32 9 -28 56 -145 195 -205 242 -68 53 -150 98 -230 126 -75 26
-259 34 -358 15z m-9 -248 l29 -33 -32 29 c-31 28 -38 36 -30 36 2 0 16 -15
33 -32z m80 -80 l29 -33 -32 29 c-18 17 -33 31 -33 33 0 8 8 1 36 -29z m74
-73 c19 -19 32 -35 29 -35 -3 0 -20 16 -39 35 -19 19 -32 35 -29 35 3 0 20
-16 39 -35z m80 -80 c19 -19 32 -35 29 -35 -3 0 -20 16 -39 35 -19 19 -32 35
-29 35 3 0 20 -16 39 -35z m80 -80 c19 -19 32 -35 29 -35 -3 0 -20 16 -39 35
-19 19 -32 35 -29 35 3 0 20 -16 39 -35z m80 -80 c19 -19 32 -35 29 -35 -3 0
-20 16 -39 35 -19 19 -32 35 -29 35 3 0 20 -16 39 -35z m86 -87 l29 -33 -32
29 c-18 17 -33 31 -33 33 0 8 8 1 36 -29z m320 -320 l29 -33 -32 29 c-18 17
-33 31 -33 33 0 8 8 1 36 -29z m80 -80 l29 -33 -32 29 c-18 17 -33 31 -33 33
0 8 8 1 36 -29z m80 -80 l29 -33 -32 29 c-18 17 -33 31 -33 33 0 8 8 1 36 -29z
m244 -41 c0 -2 -10 -12 -22 -23 l-23 -19 19 23 c18 21 26 27 26 19z m-155 -47
c21 -22 37 -40 34 -40 -3 0 -23 18 -44 40 -21 22 -37 40 -34 40 3 0 23 -18 44
-40z m67 -42 c-9 -9 -7 -18 11 -37 l22 -26 -27 24 c-21 19 -25 27 -17 38 6 7
14 13 17 13 3 0 1 -5 -6 -12z m-72 -71 c0 -2 -10 -12 -22 -23 l-23 -19 19 23
c18 21 26 27 26 19z m141 -24 c13 -16 12 -17 -3 -4 -10 7 -18 15 -18 17 0 8 8
3 21 -13z"/>
<path d="M5115 10170 c-158 -23 -297 -81 -356 -148 -36 -42 -58 -86 -47 -98 3
-2 24 2 47 11 78 27 255 57 376 62 l120 6 -7 76 c-3 42 -7 82 -7 89 -1 13 -45
14 -126 2z"/>
<path d="M5671 10113 c-11 -38 -22 -81 -23 -97 l-3 -29 115 -23 c154 -30 282
-68 403 -119 14 -6 17 -2 17 19 0 73 -60 138 -191 206 -78 41 -257 110 -284
110 -9 0 -22 -25 -34 -67z"/>
<path d="M4875 9799 c-54 -13 -100 -47 -119 -86 -18 -38 -21 -58 -5 -30 13 22
84 56 117 57 25 0 25 0 12 -34 -8 -23 -7 -25 23 -28 42 -4 42 -30 -1 -43 -26
-7 -31 -13 -26 -30 34 -105 194 -44 194 75 0 16 5 30 11 30 15 0 81 -39 96
-57 22 -27 22 4 0 48 -17 34 -34 50 -77 71 -62 31 -161 43 -225 27z"/>
<path d="M5823 9800 c-83 -18 -141 -58 -163 -114 -15 -40 -6 -43 31 -12 30 25
91 56 111 56 5 0 4 -9 -2 -19 -14 -28 -13 -31 13 -31 13 0 28 -5 35 -12 16
-16 -3 -38 -34 -38 -31 0 -31 -24 1 -55 45 -46 120 -23 156 46 11 23 20 55 19
72 -1 18 -2 35 -1 40 1 10 81 -30 110 -57 l23 -21 -7 35 c-11 50 -25 68 -72
91 -48 23 -157 33 -220 19z"/>
<path d="M5773 9074 c-18 -8 -33 -19 -33 -24 0 -5 -16 -27 -35 -49 -42 -47
-114 -79 -215 -97 -203 -36 -353 6 -431 121 -14 21 -37 42 -49 47 -22 8 -23 7
-16 -39 24 -179 203 -290 432 -269 221 20 358 122 389 289 8 41 5 42 -42 21z"/>
<path d="M6286 8028 c-2 -7 -22 -92 -46 -188 -83 -343 -198 -648 -379 -1010
-103 -205 -299 -552 -330 -583 -4 -4 -12 217 -18 490 -7 274 -14 505 -17 513
-5 11 20 34 83 78 118 83 122 89 91 114 -22 18 -86 58 -153 95 -45 25 -29 -1
47 -73 42 -42 75 -78 72 -81 -2 -3 -35 26 -72 63 -36 38 -71 68 -76 66 -5 -1
-7 2 -4 7 4 5 2 12 -4 16 -6 4 -7 11 -4 17 5 7 2 8 -6 3 -8 -5 -18 -1 -26 10
-17 23 -78 17 -149 -14 -80 -35 -196 -95 -205 -107 -9 -10 111 -113 167 -142
13 -8 23 -19 20 -25 -2 -7 -32 -102 -66 -212 -34 -110 -69 -221 -77 -248 -23
-75 -120 -415 -139 -492 -10 -38 -21 -74 -25 -78 -9 -10 -128 348 -174 523
-109 417 -152 740 -144 1074 5 197 10 184 -72 165 -25 -6 -54 -10 -64 -10 -11
0 -44 -6 -75 -14 -168 -41 -196 -51 -196 -65 0 -8 -3 -19 -6 -25 -4 -5 -12
-28 -18 -50 -7 -22 -16 -49 -21 -60 -12 -26 -149 -483 -180 -600 -5 -16 -38
-136 -75 -265 -84 -300 -183 -685 -235 -915 -44 -194 -50 -256 -69 -700 -32
-734 -42 -954 -56 -1290 -8 -203 -17 -394 -18 -423 l-4 -54 146 144 146 143
-147 -150 -148 -150 0 -123 c0 -133 8 -164 57 -229 34 -45 123 -133 135 -133
4 0 8 -5 8 -11 0 -6 -7 -9 -15 -5 -8 3 -26 1 -39 -3 -21 -9 -23 -17 -29 -98
-4 -48 -11 -104 -17 -123 -13 -46 -9 -348 6 -358 6 -4 15 -99 21 -251 l11
-243 93 -97 94 -96 -92 90 c-51 49 -93 83 -93 75 0 -31 50 -691 65 -855 19
-212 49 -505 83 -819 l27 -241 708 -3 c683 -2 707 -2 707 16 0 11 -11 205 -24
433 -14 228 -28 537 -32 687 l-7 272 136 0 135 0 7 -52 c38 -299 86 -601 181
-1141 l38 -217 733 0 732 0 -6 143 c-6 137 8 587 28 887 13 208 23 768 15 814
l-8 39 -32 -58 c-35 -61 -107 -141 -136 -150 -23 -7 -100 22 -240 93 -175 88
-281 163 -409 291 l-115 113 -47 -5 c-48 -6 -81 -21 -176 -81 -91 -58 -182
-55 -240 6 -32 34 -37 24 53 88 23 16 70 61 104 102 201 236 239 271 359 337
39 22 71 38 71 36 0 -1 32 6 72 16 39 10 123 24 185 30 l114 12 36 65 c24 43
33 67 25 70 -6 2 -22 12 -34 22 l-23 19 73 142 c40 78 65 136 55 128 -10 -8
-4 3 14 23 41 48 49 74 28 95 -22 22 -20 33 69 272 l76 203 6 992 6 991 -56
365 c-90 588 -122 793 -125 809 -1 3 -13 -6 -28 -20 l-28 -24 27 30 28 31 -21
129 c-11 72 -46 300 -78 508 -32 207 -60 379 -62 381 -11 12 -193 58 -274 70
-158 25 -205 28 -209 14z m-1018 -588 c-7 -10 -14 -17 -17 -15 -4 4 18 35 25
35 2 0 -1 -9 -8 -20z m283 -17 c13 -16 17 -22 9 -15 -8 6 -18 12 -23 12 -4 0
-5 -6 -1 -12 4 -7 3 -10 -1 -5 -7 6 -16 47 -10 47 1 0 12 -12 26 -27z m-191
-43 c0 -5 -7 -7 -15 -4 -8 4 -15 8 -15 10 0 2 7 4 15 4 8 0 15 -4 15 -10z
m631 -347 c13 -16 12 -17 -3 -4 -10 7 -18 15 -18 17 0 8 8 3 21 -13z m65 -65
l29 -33 -32 29 c-31 28 -38 36 -30 36 2 0 16 -15 33 -32z m80 -80 l29 -33 -32
29 c-31 28 -38 36 -30 36 2 0 16 -15 33 -32z m724 -41 c0 -2 -15 -16 -32 -33
l-33 -29 29 33 c28 30 36 37 36 29z m-644 -39 l29 -33 -32 29 c-31 28 -38 36
-30 36 2 0 16 -15 33 -32z m564 -41 c0 -2 -15 -16 -32 -33 l-33 -29 29 33 c28
30 36 37 36 29z m-484 -39 l29 -33 -32 29 c-31 28 -38 36 -30 36 2 0 16 -15
33 -32z m404 -41 c0 -2 -15 -16 -32 -33 l-33 -29 29 33 c28 30 36 37 36 29z
m-324 -39 l29 -33 -32 29 c-31 28 -38 36 -30 36 2 0 16 -15 33 -32z m196 -91
l-52 -53 23 -24 22 -24 -25 22 c-25 21 -27 21 -45 4 -19 -17 -20 -16 -2 3 16
19 15 21 -30 70 l-48 50 50 -48 51 -47 49 50 c27 27 52 50 54 50 3 0 -18 -24
-47 -53z m-112 -110 c0 -2 -15 -16 -32 -33 l-33 -29 29 33 c28 30 36 37 36 29z
m156 -39 l29 -33 -32 29 c-31 28 -38 36 -30 36 2 0 16 -15 33 -32z m-236 -41
c0 -2 -15 -16 -32 -33 l-33 -29 29 33 c28 30 36 37 36 29z m316 -39 l29 -33
-32 29 c-31 28 -38 36 -30 36 2 0 16 -15 33 -32z m-396 -41 c0 -2 -15 -16 -32
-33 l-33 -29 29 33 c28 30 36 37 36 29z m476 -39 l29 -33 -32 29 c-31 28 -38
36 -30 36 2 0 16 -15 33 -32z m-556 -41 c0 -2 -15 -16 -32 -33 l-33 -29 29 33
c28 30 36 37 36 29z m636 -39 l29 -33 -32 29 c-31 28 -38 36 -30 36 2 0 16
-15 33 -32z m-716 -41 c0 -2 -15 -16 -32 -33 l-33 -29 29 33 c28 30 36 37 36
29z m796 -39 l29 -33 -32 29 c-31 28 -38 36 -30 36 2 0 16 -15 33 -32z m-876
-41 c0 -2 -15 -16 -32 -33 l-33 -29 29 33 c28 30 36 37 36 29z m956 -39 l29
-33 -32 29 c-31 28 -38 36 -30 36 2 0 16 -15 33 -32z m-1036 -41 c0 -2 -15
-16 -32 -33 l-33 -29 29 33 c28 30 36 37 36 29z m-80 -80 c0 -2 -15 -16 -32
-33 l-33 -29 29 33 c28 30 36 37 36 29z m-80 -80 c0 -2 -15 -16 -32 -33 l-33
-29 29 33 c28 30 36 37 36 29z m-80 -80 c0 -2 -15 -16 -32 -33 l-33 -29 29 33
c28 30 36 37 36 29z m-80 -80 c0 -2 -15 -16 -32 -33 l-33 -29 29 33 c28 30 36
37 36 29z m-1900 -122 c47 -47 82 -85 80 -85 -3 0 -43 38 -90 85 -47 47 -82
85 -80 85 3 0 43 -38 90 -85z m1820 42 c0 -2 -15 -16 -32 -33 l-33 -29 29 33
c28 30 36 37 36 29z m-80 -80 c0 -2 -17 -19 -37 -38 l-38 -34 34 38 c33 34 41
42 41 34z m-990 -507 c0 -5 -5 -10 -11 -10 -5 0 -7 5 -4 10 3 6 8 10 11 10 2
0 4 -4 4 -10z m970 -1155 c13 -14 21 -25 18 -25 -2 0 -15 11 -28 25 -13 14
-21 25 -18 25 2 0 15 -11 28 -25z m76 -77 l29 -33 -32 29 c-31 28 -38 36 -30
36 2 0 16 -15 33 -32z m80 -80 l29 -33 -32 29 c-18 17 -33 31 -33 33 0 8 8 1
36 -29z m80 -80 l29 -33 -32 29 c-18 17 -33 31 -33 33 0 8 8 1 36 -29z m80
-80 l29 -33 -32 29 c-18 17 -33 31 -33 33 0 8 8 1 36 -29z m80 -80 l29 -33
-32 29 c-18 17 -33 31 -33 33 0 8 8 1 36 -29z m80 -80 l29 -33 -32 29 c-18 17
-33 31 -33 33 0 8 8 1 36 -29z m80 -80 l29 -33 -32 29 c-18 17 -33 31 -33 33
0 8 8 1 36 -29z m80 -80 l29 -33 -32 29 c-18 17 -33 31 -33 33 0 8 8 1 36 -29z
m80 -80 l29 -33 -32 29 c-18 17 -33 31 -33 33 0 8 8 1 36 -29z m-836 -84 l235
-95 -430 5 c-236 3 -445 9 -463 13 -30 8 -20 14 165 95 149 65 205 86 228 82
17 -3 136 -48 265 -100z m1510 93 c0 -1 -30 -32 -67 -67 l-68 -65 65 68 c60
62 70 72 70 64z m-594 -89 l29 -33 -32 29 c-18 17 -33 31 -33 33 0 8 8 1 36
-29z m80 -80 l29 -33 -32 29 c-18 17 -33 31 -33 33 0 8 8 1 36 -29z m364 19
c0 -2 -12 -14 -27 -28 l-28 -24 24 28 c23 25 31 32 31 24z m-294 -89 l29 -33
-32 29 c-18 17 -33 31 -33 33 0 8 8 1 36 -29z m204 -1 c0 -2 -10 -12 -22 -23
l-23 -19 19 23 c18 21 26 27 26 19z m-85 -79 c19 17 20 16 3 -3 -17 -18 -17
-21 20 -60 l37 -40 -40 37 -41 38 -24 -23 -24 -22 22 25 22 26 -23 24 -22 24
25 -22 c25 -21 27 -21 45 -4z m-973 -17 l33 -29 6 -163 c3 -90 2 -178 -3 -196
-5 -18 -22 -41 -37 -53 -28 -19 -43 -20 -296 -20 -297 0 -315 3 -341 65 -8 19
-14 63 -14 99 0 55 -3 64 -20 69 -11 3 -20 12 -20 21 0 8 9 20 20 26 17 9 20
21 20 73 0 34 6 73 13 87 24 47 43 50 334 50 l273 0 32 -29z m898 -65 c0 -2
-8 -10 -17 -17 -16 -13 -17 -12 -4 4 13 16 21 21 21 13z m-650 -650 c0 -2 -8
-10 -17 -17 -16 -13 -17 -12 -4 4 13 16 21 21 21 13z m-60 -59 c0 -2 -12 -14
-27 -28 l-28 -24 24 28 c23 25 31 32 31 24z m-80 -80 c0 -2 -12 -14 -27 -28
l-28 -24 24 28 c23 25 31 32 31 24z m-80 -80 c0 -2 -12 -14 -27 -28 l-28 -24
24 28 c23 25 31 32 31 24z m-80 -80 c0 -2 -12 -14 -27 -28 l-28 -24 24 28 c23
25 31 32 31 24z m-80 -80 c0 -2 -12 -14 -27 -28 l-28 -24 24 28 c23 25 31 32
31 24z"/>
<path d="M5002 2734 c-20 -14 -23 -23 -20 -72 3 -50 6 -57 26 -60 16 -2 22
-10 22 -27 0 -17 -6 -25 -22 -27 -22 -3 -23 -7 -20 -73 3 -50 8 -74 20 -82 12
-10 81 -13 263 -13 218 0 250 2 264 17 15 14 17 37 14 171 -4 138 -6 155 -23
168 -31 22 -492 20 -524 -2z"/>
</g>
</svg>
